<?xml version="1.0" encoding="iso-8859-1"?>
<!-- Generator: Adobe Illustrator 17.1.0, SVG Export Plug-In . SVG Version: 6.00 Build 0)  -->
<!DOCTYPE svg PUBLIC "-//W3C//DTD SVG 1.1//EN" "http://www.w3.org/Graphics/SVG/1.1/DTD/svg11.dtd">
<svg version="1.1" id="Capa_1" xmlns="http://www.w3.org/2000/svg" xmlns:xlink="http://www.w3.org/1999/xlink" x="0px" y="0px"
	 viewBox="0 0 331.389 331.389" style="enable-background:new 0 0 331.389 331.389;" xml:space="preserve">
<path d="M309.208,22.838c-14.489-14.489-33.64-22.662-53.957-22.662c-0.088,0-0.179,0-0.267,0c-20.35,0-39.57,8.327-54.121,22.878
	c-5.858,5.858-5.858,15.56,0,21.418c5.857,5.858,15.355,5.858,21.213,0c18.543-18.542,47.498-18.638,65.919-0.216
	c18.114,18.115,17.841,47.862-0.609,66.313L110.452,287.502c-18.342,18.341-48.234,18.294-66.635-0.106
	c-18.4-18.4-18.448-48.293-0.106-66.634l8.404-8.404l68.039-68.039l42.063-42.063c7.458-7.456,20.88-4.051,28.738,3.807l0.111,0.111
	c2.645,2.646,5.789,6.909,5.743,12.198c-0.037,4.247-2.118,8.554-6.02,12.456l-89.359,89.359c-5.858,5.858-5.858,15.355,0,21.213
	c2.929,2.929,6.768,4.394,10.606,4.394c3.839,0,7.678-1.464,10.606-4.394l89.359-89.359c9.443-9.443,14.702-21.309,14.806-33.411
	c0.105-12.237-5.054-24.195-14.529-33.669l-0.111-0.111c-20.67-20.67-52.594-22.378-71.164-3.807l-42.063,42.063l-68.039,68.039
	l-8.404,8.404c-30.039,30.038-29.991,78.963,0.106,109.06c15.068,15.069,34.853,22.605,54.628,22.604
	c19.722-0.001,39.434-7.549,54.433-22.549l176.934-176.985C338.746,101.532,339.019,52.649,309.208,22.838z"/>
<g>
</g>
<g>
</g>
<g>
</g>
<g>
</g>
<g>
</g>
<g>
</g>
<g>
</g>
<g>
</g>
<g>
</g>
<g>
</g>
<g>
</g>
<g>
</g>
<g>
</g>
<g>
</g>
<g>
</g>
</svg>
