<?xml version="1.0" encoding="utf-8"?>
<!-- Generator: Adobe Illustrator 23.0.3, SVG Export Plug-In . SVG Version: 6.00 Build 0)  -->
<svg version="1.1" xmlns="http://www.w3.org/2000/svg" xmlns:xlink="http://www.w3.org/1999/xlink" x="0px" y="0px"
	 viewBox="0 0 1920 517" style="enable-background:new 0 0 1920 517;" xml:space="preserve">
<style type="text/css">
	.st0{display:none;}
	.st1{display:inline;}
	.st2{fill:#FFFFFF;}
	.st3{opacity:0.5;fill:#BF3376;}
	.st4{opacity:0.7;fill:#BF3376;}
	.st5{fill:#BF3376;}
	.st6{opacity:0.5;fill:#FFFFFF;}
	.st7{opacity:0.7;fill:#FFFFFF;}
</style>
<g id="Capa_1" class="st0">
	<g class="st1">
		<rect x="0.5" y="-562.5" width="1919" height="1079"/>
		<path class="st2" d="M1919-562V516H1V-562H1919 M1920-563H0V517h1920V-563L1920-563z"/>
	</g>
</g>
<g id="Capa_3">
	<g>
		<path class="st3" d="M0,517c0,0,271-215.58,466-174.37c0,0,518,163.83,743-2.52c0,0,353-347.39,711-300.82V517H0z"/>
		<path class="st4" d="M0,517c0,0,271-195.9,466-158.45c0,0,518,148.88,743-2.29c0,0,353-315.67,711-273.36V517H0z"/>
		<path class="st5" d="M0,517c0,0,271-184.22,466-149c0,0,518,140,743-2.15c0,0,353-296.85,711-257.06V517H0z"/>
	</g>
</g>
<g id="Capa_2">
	<g>
		<path class="st6" d="M0,517c0,0,390-114.16,585-92.65c0,0,479,55.42,635-7.44c0,0,258-146.42,700-114.98V517H0z"/>
		<path class="st7" d="M0,517c0,0,390-96.12,585-78.01c0,0,479,46.67,635-6.27c0,0,258-123.29,700-96.82V517H0z"/>
		<path class="st2" d="M0,517c0,0,390-84.23,585-68.36c0,0,479,40.89,635-5.49c0,0,258-108.03,700-84.84V517H0z"/>
	</g>
</g>
</svg>
